<?xml version='1.0' encoding='utf-8'?>
<svg xmlns="http://www.w3.org/2000/svg" width="600" height="500" viewBox="0 0 600 500">
  <polygon points="-0.00,0.00 262.17,0.00 220.92,189.79 0.00,160.33" fill="rgb(180,230,180)" stroke="none" />
  <polygon points="245.12,250.31 328.09,311.63 469.73,259.18 383.33,0.00 262.17,0.00 220.92,189.79" fill="rgb(245,245,245)" stroke="none" />
  <polygon points="-0.00,401.15 0.00,500.00 300.19,500.00 328.09,311.63 245.12,250.31" fill="rgb(255,235,150)" stroke="none" />
  <polygon points="469.73,259.18 328.09,311.63 300.19,500.00 600.00,500.00 600.00,279.53" fill="rgb(255,170,170)" stroke="none" />
  <polygon points="0.00,160.33 220.92,189.79 245.12,250.31 -0.00,401.15" fill="rgb(245,245,245)" stroke="none" />
  <polygon points="600.00,279.53 600.00,-0.00 383.33,0.00 469.73,259.18" fill="rgb(245,245,245)" stroke="none" />
  <line x1="469.73" y1="259.18" x2="383.33" y2="0.00" stroke="rgb(200,200,200)" stroke-width="1.5" stroke-dasharray="6,6" />
  <line x1="469.73" y1="259.18" x2="600.00" y2="279.53" stroke="rgb(200,40,40)" stroke-width="1.5" stroke-dasharray="6,6" />
  <line x1="328.09" y1="311.63" x2="300.19" y2="500.00" stroke="rgb(200,40,40)" stroke-width="1.5" stroke-dasharray="6,6" />
  <line x1="328.09" y1="311.63" x2="469.73" y2="259.18" stroke="rgb(200,40,40)" stroke-width="1.5" stroke-dasharray="6,6" />
  <line x1="328.09" y1="311.63" x2="245.12" y2="250.31" stroke="rgb(180,140,0)" stroke-width="1.5" stroke-dasharray="6,6" />
  <line x1="262.17" y1="0.00" x2="220.92" y2="189.79" stroke="rgb(30,140,30)" stroke-width="1.5" stroke-dasharray="6,6" />
  <line x1="220.92" y1="189.79" x2="245.12" y2="250.31" stroke="rgb(200,200,200)" stroke-width="1.5" stroke-dasharray="6,6" />
  <line x1="220.92" y1="189.79" x2="0.00" y2="160.33" stroke="rgb(30,140,30)" stroke-width="1.5" stroke-dasharray="6,6" />
  <line x1="245.12" y1="250.31" x2="-0.00" y2="401.15" stroke="rgb(180,140,0)" stroke-width="1.5" stroke-dasharray="6,6" />
  <circle cx="120" cy="100" r="3" fill="rgb(30,140,30)" />
  <text x="128" y="104" font-family="monospace" font-size="13" fill="rgb(40,40,40)">v12</text>
  <circle cx="350" cy="150" r="3" fill="rgb(200,200,200)" />
  <text x="358" y="154" font-family="monospace" font-size="13" fill="rgb(40,40,40)">v8</text>
  <circle cx="180" cy="380" r="3" fill="rgb(180,140,0)" />
  <text x="188" y="384" font-family="monospace" font-size="13" fill="rgb(40,40,40)">v14→v15</text>
  <circle cx="450" cy="420" r="3" fill="rgb(200,40,40)" />
  <text x="458" y="424" font-family="monospace" font-size="13" fill="rgb(40,40,40)">v5→v6</text>
  <text x="458" y="434" font-family="monospace" font-size="9" fill="rgb(200,40,40)">Retry</text>
  <circle cx="100" cy="250" r="3" fill="rgb(200,200,200)" />
  <text x="108" y="254" font-family="monospace" font-size="13" fill="rgb(40,40,40)">v10</text>
  <circle cx="500" cy="100" r="3" fill="rgb(200,200,200)" />
  <text x="508" y="104" font-family="monospace" font-size="13" fill="rgb(40,40,40)">v10</text>
</svg>